%TF.GenerationSoftware,Altium Limited,Altium Designer,26.9.1 (10)*%
G04 Layer_Color=0*
G04 Board_Origin=0|0*
%FSLAX45Y45*%
%MOMM*%
%TF.SameCoordinates,1C6ACFBB-D835-4B09-AEB9-D9C59146ADE3*%
%TF.FilePolarity,Positive*%
%TF.FileFunction,Plated,1,4,PTH,Drill*%
%TF.Part,Single*%
G01*
G75*
%TA.AperFunction,OtherDrill,Pad Free-TH (82.525mm,84.975mm)*%
%ADD64C,1.15200*%
%TA.AperFunction,ViaDrill,NotFilled*%
%ADD65C,0.40000*%
%ADD66C,0.30000*%
%ADD67C,0.20000*%
%ADD68C,0.25000*%
%ADD69C,0.71120*%
D64*
X8252500Y8497500D02*
D03*
D65*
X11170001Y8387501D02*
D03*
X11270001Y8187501D02*
D03*
X11170001Y7987501D02*
D03*
X11270001Y7787501D02*
D03*
X11170001Y6787501D02*
D03*
X11270001Y6587500D02*
D03*
Y6187500D02*
D03*
X10970001Y8387501D02*
D03*
X11070001Y8187501D02*
D03*
X10970001Y7987501D02*
D03*
X11070001Y7787501D02*
D03*
X10970001Y7587501D02*
D03*
X11070001Y6587500D02*
D03*
Y5787500D02*
D03*
X10970001Y5587500D02*
D03*
X10870001Y8587501D02*
D03*
Y8187501D02*
D03*
Y7787501D02*
D03*
X10770001Y7587501D02*
D03*
X10870001Y7387501D02*
D03*
Y6587500D02*
D03*
X10570001Y7587501D02*
D03*
X10670001Y7387501D02*
D03*
Y5787500D02*
D03*
X10570001Y5587500D02*
D03*
X10370001Y7587501D02*
D03*
X10470001Y7387501D02*
D03*
X10370001Y5587500D02*
D03*
X10170001D02*
D03*
X10070001Y6187500D02*
D03*
Y5787500D02*
D03*
X9770001Y6387500D02*
D03*
Y5987500D02*
D03*
X9670000Y8587501D02*
D03*
X9570000Y6387500D02*
D03*
X9670000Y6187500D02*
D03*
X9570000Y5987500D02*
D03*
X9670000Y5787500D02*
D03*
X9470000Y6187500D02*
D03*
X9170000Y5587500D02*
D03*
X9070000Y8587501D02*
D03*
Y6587500D02*
D03*
X8970000Y6387500D02*
D03*
X8870000Y8587501D02*
D03*
X8770000Y7987501D02*
D03*
Y7587501D02*
D03*
X8870000Y6587500D02*
D03*
Y6187500D02*
D03*
X8770000Y5987500D02*
D03*
X8670000Y8187501D02*
D03*
X8570000Y7987501D02*
D03*
X8670000Y7787501D02*
D03*
X8570000Y7587501D02*
D03*
X8670000Y6587500D02*
D03*
X8570000Y6387500D02*
D03*
Y5987500D02*
D03*
X8670000Y5787500D02*
D03*
X8570000Y5587500D02*
D03*
X8470000Y8187501D02*
D03*
X8370000Y7987501D02*
D03*
X8470000Y7787501D02*
D03*
X8370000Y7587501D02*
D03*
Y7187501D02*
D03*
Y6787501D02*
D03*
Y6387500D02*
D03*
Y5987500D02*
D03*
X8170000D02*
D03*
Y5587500D02*
D03*
D66*
X10179646Y8254000D02*
D03*
X10100000Y8700000D02*
D03*
X10050000Y7500000D02*
D03*
X11025000Y7425000D02*
D03*
X9507654Y8016728D02*
D03*
X10800000Y6850000D02*
D03*
X10950000D02*
D03*
X10650000Y6650000D02*
D03*
X9950000Y6750000D02*
D03*
X10650000D02*
D03*
X11100000Y6450000D02*
D03*
X10900000Y6400000D02*
D03*
X10600000D02*
D03*
X10800000D02*
D03*
X9750000Y6600000D02*
D03*
X9550000D02*
D03*
X9500000Y5550000D02*
D03*
X9450000Y8597500D02*
D03*
X9400000Y7850000D02*
D03*
X8800000Y8350000D02*
D03*
X9150000Y7750000D02*
D03*
X8800000Y8150000D02*
D03*
X8900000Y7000000D02*
D03*
X8800000Y7350000D02*
D03*
X8500000Y7100000D02*
D03*
X8800000Y6900000D02*
D03*
Y6800000D02*
D03*
X8500000Y6700000D02*
D03*
X10100000Y7650000D02*
D03*
X9850000Y7950000D02*
D03*
X8950000Y7900000D02*
D03*
X9950000Y5400000D02*
D03*
D67*
X9710000Y7395000D02*
D03*
X9600000D02*
D03*
X9490000D02*
D03*
X9710000Y7285000D02*
D03*
Y7175000D02*
D03*
X9600000D02*
D03*
X9710000Y7065000D02*
D03*
Y6955000D02*
D03*
X9600000Y7065000D02*
D03*
Y7285000D02*
D03*
X9490000Y7175000D02*
D03*
Y7285000D02*
D03*
Y6955000D02*
D03*
Y7065000D02*
D03*
X9600000Y6955000D02*
D03*
X9305000Y8355000D02*
D03*
Y8245000D02*
D03*
X9195000Y8355000D02*
D03*
Y8245000D02*
D03*
X9270000Y7395000D02*
D03*
X9380000D02*
D03*
Y7285000D02*
D03*
X9270000D02*
D03*
X9380000Y7175000D02*
D03*
X9270000Y7065000D02*
D03*
Y7175000D02*
D03*
X9380000Y7065000D02*
D03*
Y6955000D02*
D03*
X9270000D02*
D03*
D68*
X9400000Y8000000D02*
D03*
X10400000Y8775000D02*
D03*
X9675000Y7900000D02*
D03*
X9610104Y7989896D02*
D03*
X9250000Y7950000D02*
D03*
X9550000Y5400000D02*
D03*
X8898986Y7101014D02*
D03*
X9800000Y8100000D02*
D03*
D69*
X10375000Y7075000D02*
D03*
%TF.MD5,5b0ac306acff2e1a1d9171fcc325ad14*%
M02*
