%TF.GenerationSoftware,Altium Limited,Altium Designer,26.9.1 (10)*%
G04 Layer_Color=128*
G04 Board_Origin=0|0*
%FSLAX45Y45*%
%MOMM*%
%TF.SameCoordinates,D3D5DFD8-8B74-458A-B49E-DE5CF44C0674*%
%TF.FilePolarity,Positive*%
%TF.FileFunction,Drillmap*%
%TF.Part,Single*%
G01*
G75*
%TA.AperFunction,NonConductor*%
%ADD69C,0.12700*%
D69*
X11277400Y5897500D02*
X11392600D01*
X11335000Y5839900D02*
Y5955100D01*
X8194900Y8497500D02*
X8310100D01*
X8252500Y8439900D02*
Y8555100D01*
X8227500Y8722500D02*
X8467500D01*
X8347500Y8602500D02*
Y8842500D01*
X10212500Y8508000D02*
X10452500D01*
X10332500Y8388000D02*
Y8628000D01*
X11130000Y5650000D02*
X11370000D01*
X11250000Y5530000D02*
Y5770000D01*
X11130000Y8650000D02*
X11370000D01*
X11250000Y8530000D02*
Y8770000D01*
X8280000Y5700000D02*
X8520000D01*
X8400000Y5580000D02*
Y5820000D01*
X10530000Y8508000D02*
X10770000D01*
X10650000Y8388000D02*
Y8628000D01*
X10530000Y8000000D02*
X10770000D01*
X10650000Y7880000D02*
Y8120000D01*
X10212500Y8000000D02*
X10452500D01*
X10332500Y7880000D02*
Y8120000D01*
X10596650Y8254000D02*
X10703350D01*
X10650000Y8200650D02*
Y8307350D01*
X10088650Y8152400D02*
X10195350D01*
X10142000Y8099050D02*
Y8205750D01*
X10088650Y8355600D02*
X10195350D01*
X10142000Y8302250D02*
Y8408950D01*
X9435000Y8597500D02*
X9465000D01*
X9450000Y8582500D02*
Y8612500D01*
X9387500Y8000000D02*
X9412500D01*
X9400000Y7987500D02*
Y8012500D01*
X11010000Y7425000D02*
X11040000D01*
X11025000Y7410000D02*
Y7440000D01*
X10387500Y8775000D02*
X10412500D01*
X10400000Y8762500D02*
Y8787500D01*
X10339440Y7075000D02*
X10410560D01*
X10375000Y7039440D02*
Y7110560D01*
X10085000Y7650000D02*
X10115000D01*
X10100000Y7635000D02*
Y7665000D01*
X9662500Y7900000D02*
X9687500D01*
X9675000Y7887500D02*
Y7912500D01*
X9835000Y7950000D02*
X9865000D01*
X9850000Y7935000D02*
Y7965000D01*
X9492654Y8016728D02*
X9522654D01*
X9507654Y8001728D02*
Y8031728D01*
X9385000Y7850000D02*
X9415000D01*
X9400000Y7835000D02*
Y7865000D01*
X9597604Y7989896D02*
X9622604D01*
X9610104Y7977396D02*
Y8002395D01*
X9135000Y7750000D02*
X9165000D01*
X9150000Y7735000D02*
Y7765000D01*
X9237500Y7950000D02*
X9262500D01*
X9250000Y7937500D02*
Y7962500D01*
X8935000Y7900000D02*
X8965000D01*
X8950000Y7885000D02*
Y7915000D01*
X8485000Y7100000D02*
X8515000D01*
X8500000Y7085000D02*
Y7115000D01*
X9935000Y6750000D02*
X9965000D01*
X9950000Y6735000D02*
Y6765000D01*
X9537500Y5400000D02*
X9562500D01*
X9550000Y5387500D02*
Y5412500D01*
X9935000Y5400000D02*
X9965000D01*
X9950000Y5385000D02*
Y5415000D01*
X10035000Y7500000D02*
X10065000D01*
X10050000Y7485000D02*
Y7515000D01*
X10085000Y8700000D02*
X10115000D01*
X10100000Y8685000D02*
Y8715000D01*
X10164646Y8254000D02*
X10194646D01*
X10179646Y8239000D02*
Y8269000D01*
X10935000Y6850000D02*
X10965000D01*
X10950000Y6835000D02*
Y6865000D01*
X10785000Y6850000D02*
X10815000D01*
X10800000Y6835000D02*
Y6865000D01*
X10585000Y6400000D02*
X10615000D01*
X10600000Y6385000D02*
Y6415000D01*
X10635000Y6650000D02*
X10665000D01*
X10650000Y6635000D02*
Y6665000D01*
X10635000Y6750000D02*
X10665000D01*
X10650000Y6735000D02*
Y6765000D01*
X10785000Y6400000D02*
X10815000D01*
X10800000Y6385000D02*
Y6415000D01*
X10885000Y6400000D02*
X10915000D01*
X10900000Y6385000D02*
Y6415000D01*
X11085000Y6450000D02*
X11115000D01*
X11100000Y6435000D02*
Y6465000D01*
X9485000Y5550000D02*
X9515000D01*
X9500000Y5535000D02*
Y5565000D01*
X9735000Y6600000D02*
X9765000D01*
X9750000Y6585000D02*
Y6615000D01*
X9535000Y6600000D02*
X9565000D01*
X9550000Y6585000D02*
Y6615000D01*
X8785000Y6800000D02*
X8815000D01*
X8800000Y6785000D02*
Y6815000D01*
X8485000Y6700000D02*
X8515000D01*
X8500000Y6685000D02*
Y6715000D01*
X8785000Y6900000D02*
X8815000D01*
X8800000Y6885000D02*
Y6915000D01*
X8885000Y7000000D02*
X8915000D01*
X8900000Y6985000D02*
Y7015000D01*
X8886486Y7101014D02*
X8911486D01*
X8898986Y7088514D02*
Y7113514D01*
X8785000Y7350000D02*
X8815000D01*
X8800000Y7335000D02*
Y7365000D01*
X8785000Y8150000D02*
X8815000D01*
X8800000Y8135000D02*
Y8165000D01*
X8785000Y8350000D02*
X8815000D01*
X8800000Y8335000D02*
Y8365000D01*
X9787500Y8100000D02*
X9812500D01*
X9800000Y8087500D02*
Y8112500D01*
X9700000Y6955000D02*
X9720000D01*
X9710000Y6945000D02*
Y6965000D01*
X9700000Y7175000D02*
X9720000D01*
X9710000Y7165000D02*
Y7185000D01*
X9700000Y7065000D02*
X9720000D01*
X9710000Y7055000D02*
Y7075000D01*
X9700000Y7395000D02*
X9720000D01*
X9710000Y7385000D02*
Y7405000D01*
X9590000Y7395000D02*
X9610000D01*
X9600000Y7385000D02*
Y7405000D01*
X9590000Y7285000D02*
X9610000D01*
X9600000Y7275000D02*
Y7295000D01*
X9480000Y7395000D02*
X9500000D01*
X9490000Y7385000D02*
Y7405000D01*
X9480000Y7285000D02*
X9500000D01*
X9490000Y7275000D02*
Y7295000D01*
X9700000Y7285000D02*
X9720000D01*
X9710000Y7275000D02*
Y7295000D01*
X9590000Y7065000D02*
X9610000D01*
X9600000Y7055000D02*
Y7075000D01*
X9590000Y6955000D02*
X9610000D01*
X9600000Y6945000D02*
Y6965000D01*
X9590000Y7175000D02*
X9610000D01*
X9600000Y7165000D02*
Y7185000D01*
X9480000Y6955000D02*
X9500000D01*
X9490000Y6945000D02*
Y6965000D01*
X9185000Y8245000D02*
X9205000D01*
X9195000Y8235000D02*
Y8255000D01*
X9295000Y8245000D02*
X9315000D01*
X9305000Y8235000D02*
Y8255000D01*
X9295000Y8355000D02*
X9315000D01*
X9305000Y8345000D02*
Y8365000D01*
X9185000Y8355000D02*
X9205000D01*
X9195000Y8345000D02*
Y8365000D01*
X9370000Y7285000D02*
X9390000D01*
X9380000Y7275000D02*
Y7295000D01*
X9370000Y7395000D02*
X9390000D01*
X9380000Y7385000D02*
Y7405000D01*
X9480000Y7065000D02*
X9500000D01*
X9490000Y7055000D02*
Y7075000D01*
X9480000Y7175000D02*
X9500000D01*
X9490000Y7165000D02*
Y7185000D01*
X9370000Y6955000D02*
X9390000D01*
X9380000Y6945000D02*
Y6965000D01*
X9370000Y7175000D02*
X9390000D01*
X9380000Y7165000D02*
Y7185000D01*
X9370000Y7065000D02*
X9390000D01*
X9380000Y7055000D02*
Y7075000D01*
X9260000Y7285000D02*
X9280000D01*
X9270000Y7275000D02*
Y7295000D01*
X9260000Y7395000D02*
X9280000D01*
X9270000Y7385000D02*
Y7405000D01*
X9260000Y7175000D02*
X9280000D01*
X9270000Y7165000D02*
Y7185000D01*
X9260000Y7065000D02*
X9280000D01*
X9270000Y7055000D02*
Y7075000D01*
X9260000Y6955000D02*
X9280000D01*
X9270000Y6945000D02*
Y6965000D01*
%TF.MD5,87b9432e92cd9a2f4fdb3fe9c6bd71e0*%
M02*
