%TF.GenerationSoftware,Altium Limited,Altium Designer,26.9.1 (10)*%
G04 Layer_Physical_Order=4*
G04 Layer_Color=16711680*
G04 Board_Origin=0|0*
%FSLAX45Y45*%
%MOMM*%
%TF.SameCoordinates,1C6ACFBB-D835-4B09-AEB9-D9C59146ADE3*%
%TF.FilePolarity,Positive*%
%TF.FileFunction,Copper,L4,Bot,Signal*%
%TF.Part,Single*%
G01*
G75*
%TA.AperFunction,Conductor*%
%ADD33C,0.30000*%
%ADD34C,0.20000*%
%ADD35C,0.60000*%
%TA.AperFunction,ViaPad*%
%ADD39C,1.15200*%
%TA.AperFunction,WasherPad*%
%ADD40C,1.15200*%
%ADD41C,2.40000*%
%TA.AperFunction,ComponentPad*%
%ADD42C,2.40000*%
%ADD43C,1.06700*%
%TA.AperFunction,ViaPad*%
%ADD44C,0.80000*%
%ADD45C,0.70000*%
%ADD46C,0.50000*%
%ADD47C,0.40000*%
%ADD48C,0.60000*%
%ADD49C,1.27000*%
D33*
X9675000Y7900000D02*
X9725000Y7950000D01*
X9850000D01*
D34*
X10259311Y8759706D02*
X10316596D01*
X10331890Y8775000D01*
X10400000D01*
X10244016D02*
X10259311Y8759706D01*
X10011716Y8775000D02*
X10244016D01*
X10000000Y7930000D02*
Y8763284D01*
X10011716Y8775000D01*
X9689896Y7989896D02*
X9800000Y8100000D01*
X9610104Y7989896D02*
X9689896D01*
X9855000Y7785000D02*
X10000000Y7930000D01*
X9250962Y7785000D02*
X9855000D01*
X8865000Y7635000D02*
X9045000Y7815000D01*
X9220962D02*
X9250962Y7785000D01*
X9045000Y7815000D02*
X9220962D01*
X8898986Y7101014D02*
X8900000Y7102027D01*
Y7420000D01*
X8865000Y7455000D02*
X8900000Y7420000D01*
X8865000Y7455000D02*
Y7635000D01*
D35*
X10375000Y7075000D02*
Y7375000D01*
X10100000Y7650000D02*
X10375000Y7375000D01*
X9247294Y7950000D02*
X9250000D01*
X9197294Y7900000D02*
X9247294Y7950000D01*
X8950000Y7900000D02*
X9197294D01*
X9550000Y5400000D02*
X9950000D01*
D39*
X8252500Y8497500D02*
D03*
D40*
X11335000Y5897500D02*
D03*
D41*
X8347500Y8722500D02*
D03*
X11250000Y5650000D02*
D03*
Y8650000D02*
D03*
X8400000Y5700000D02*
D03*
D42*
X10332500Y8508000D02*
D03*
X10650000D02*
D03*
Y8000000D02*
D03*
X10332500D02*
D03*
D43*
X10650000Y8254000D02*
D03*
X10142000Y8152400D02*
D03*
Y8355600D02*
D03*
D44*
X11170001Y8387501D02*
D03*
X11270001Y8187501D02*
D03*
X11170001Y7987501D02*
D03*
X11270001Y7787501D02*
D03*
X11170001Y6787501D02*
D03*
X11270001Y6587500D02*
D03*
Y6187500D02*
D03*
X10970001Y8387501D02*
D03*
X11070001Y8187501D02*
D03*
X10970001Y7987501D02*
D03*
X11070001Y7787501D02*
D03*
X10970001Y7587501D02*
D03*
X11070001Y6587500D02*
D03*
Y5787500D02*
D03*
X10970001Y5587500D02*
D03*
X10870001Y8587501D02*
D03*
Y8187501D02*
D03*
Y7787501D02*
D03*
X10770001Y7587501D02*
D03*
X10870001Y7387501D02*
D03*
Y6587500D02*
D03*
X10570001Y7587501D02*
D03*
X10670001Y7387501D02*
D03*
Y5787500D02*
D03*
X10570001Y5587500D02*
D03*
X10370001Y7587501D02*
D03*
X10470001Y7387501D02*
D03*
X10370001Y5587500D02*
D03*
X10170001D02*
D03*
X10070001Y6187500D02*
D03*
Y5787500D02*
D03*
X9770001Y6387500D02*
D03*
Y5987500D02*
D03*
X9670000Y8587501D02*
D03*
X9570000Y6387500D02*
D03*
X9670000Y6187500D02*
D03*
X9570000Y5987500D02*
D03*
X9670000Y5787500D02*
D03*
X9470000Y6187500D02*
D03*
X9170000Y5587500D02*
D03*
X9070000Y8587501D02*
D03*
Y6587500D02*
D03*
X8970000Y6387500D02*
D03*
X8870000Y8587501D02*
D03*
X8770000Y7987501D02*
D03*
Y7587501D02*
D03*
X8870000Y6587500D02*
D03*
Y6187500D02*
D03*
X8770000Y5987500D02*
D03*
X8670000Y8187501D02*
D03*
X8570000Y7987501D02*
D03*
X8670000Y7787501D02*
D03*
X8570000Y7587501D02*
D03*
X8670000Y6587500D02*
D03*
X8570000Y6387500D02*
D03*
Y5987500D02*
D03*
X8670000Y5787500D02*
D03*
X8570000Y5587500D02*
D03*
X8470000Y8187501D02*
D03*
X8370000Y7987501D02*
D03*
X8470000Y7787501D02*
D03*
X8370000Y7587501D02*
D03*
Y7187501D02*
D03*
Y6787501D02*
D03*
Y6387500D02*
D03*
Y5987500D02*
D03*
X8170000D02*
D03*
Y5587500D02*
D03*
D45*
X10179646Y8254000D02*
D03*
X10100000Y8700000D02*
D03*
X10050000Y7500000D02*
D03*
X11025000Y7425000D02*
D03*
X9507654Y8016728D02*
D03*
X10800000Y6850000D02*
D03*
X10950000D02*
D03*
X10650000Y6650000D02*
D03*
X9950000Y6750000D02*
D03*
X10650000D02*
D03*
X11100000Y6450000D02*
D03*
X10900000Y6400000D02*
D03*
X10600000D02*
D03*
X10800000D02*
D03*
X9750000Y6600000D02*
D03*
X9550000D02*
D03*
X9500000Y5550000D02*
D03*
X9450000Y8597500D02*
D03*
X9400000Y7850000D02*
D03*
X8800000Y8350000D02*
D03*
X9150000Y7750000D02*
D03*
X8800000Y8150000D02*
D03*
X8900000Y7000000D02*
D03*
X8800000Y7350000D02*
D03*
X8500000Y7100000D02*
D03*
X8800000Y6900000D02*
D03*
Y6800000D02*
D03*
X8500000Y6700000D02*
D03*
X10100000Y7650000D02*
D03*
X9850000Y7950000D02*
D03*
X9250000D02*
D03*
X8950000Y7900000D02*
D03*
X9550000Y5400000D02*
D03*
X9950000D02*
D03*
D46*
X9710000Y7395000D02*
D03*
X9600000D02*
D03*
X9490000D02*
D03*
X9710000Y7285000D02*
D03*
Y7175000D02*
D03*
X9600000D02*
D03*
X9710000Y7065000D02*
D03*
Y6955000D02*
D03*
X9600000Y7065000D02*
D03*
Y7285000D02*
D03*
X9490000Y7175000D02*
D03*
Y7285000D02*
D03*
Y6955000D02*
D03*
Y7065000D02*
D03*
X9600000Y6955000D02*
D03*
X9305000Y8355000D02*
D03*
Y8245000D02*
D03*
X9195000Y8355000D02*
D03*
Y8245000D02*
D03*
X9270000Y7395000D02*
D03*
X9380000D02*
D03*
Y7285000D02*
D03*
X9270000D02*
D03*
X9380000Y7175000D02*
D03*
X9270000Y7065000D02*
D03*
Y7175000D02*
D03*
X9380000Y7065000D02*
D03*
Y6955000D02*
D03*
X9270000D02*
D03*
X9675000Y7900000D02*
D03*
D47*
X9400000Y8000000D02*
D03*
D48*
X10400000Y8775000D02*
D03*
X9610104Y7989896D02*
D03*
X8898986Y7101014D02*
D03*
X9800000Y8100000D02*
D03*
D49*
X10375000Y7075000D02*
D03*
%TF.MD5,b735bbd6644b14ef5dd10246e56a7059*%
M02*
