%TF.GenerationSoftware,Altium Limited,Altium Designer,26.9.1 (10)*%
G04 Layer_Physical_Order=1*
G04 Layer_Color=255*
G04 Board_Origin=0|0*
%FSLAX45Y45*%
%MOMM*%
%TF.SameCoordinates,1C6ACFBB-D835-4B09-AEB9-D9C59146ADE3*%
%TF.FilePolarity,Positive*%
%TF.FileFunction,Copper,L1,Top,Signal*%
%TF.Part,Single*%
G01*
G75*
%TA.AperFunction,BGAPad,CuDef*%
%ADD10C,0.86300*%
%TA.AperFunction,SMDPad,CuDef*%
G04:AMPARAMS|DCode=11|XSize=0.6mm|YSize=0.7mm|CornerRadius=0.075mm|HoleSize=0mm|Usage=FLASHONLY|Rotation=0.000|XOffset=0mm|YOffset=0mm|HoleType=Round|Shape=RoundedRectangle|*
%AMROUNDEDRECTD11*
21,1,0.60000,0.55000,0,0,0.0*
21,1,0.45000,0.70000,0,0,0.0*
1,1,0.15000,0.22500,-0.27500*
1,1,0.15000,-0.22500,-0.27500*
1,1,0.15000,-0.22500,0.27500*
1,1,0.15000,0.22500,0.27500*
%
%ADD11ROUNDEDRECTD11*%
%TA.AperFunction,ConnectorPad*%
%ADD12R,1.38000X0.45000*%
%TA.AperFunction,SMDPad,CuDef*%
G04:AMPARAMS|DCode=13|XSize=0.6mm|YSize=0.7mm|CornerRadius=0.075mm|HoleSize=0mm|Usage=FLASHONLY|Rotation=90.000|XOffset=0mm|YOffset=0mm|HoleType=Round|Shape=RoundedRectangle|*
%AMROUNDEDRECTD13*
21,1,0.60000,0.55000,0,0,90.0*
21,1,0.45000,0.70000,0,0,90.0*
1,1,0.15000,0.27500,0.22500*
1,1,0.15000,0.27500,-0.22500*
1,1,0.15000,-0.27500,-0.22500*
1,1,0.15000,-0.27500,0.22500*
%
%ADD13ROUNDEDRECTD13*%
%ADD14O,0.80000X0.25000*%
G04:AMPARAMS|DCode=15|XSize=1.4mm|YSize=1.7mm|CornerRadius=0.175mm|HoleSize=0mm|Usage=FLASHONLY|Rotation=180.000|XOffset=0mm|YOffset=0mm|HoleType=Round|Shape=RoundedRectangle|*
%AMROUNDEDRECTD15*
21,1,1.40000,1.35000,0,0,180.0*
21,1,1.05000,1.70000,0,0,180.0*
1,1,0.35000,-0.52500,0.67500*
1,1,0.35000,0.52500,0.67500*
1,1,0.35000,0.52500,-0.67500*
1,1,0.35000,-0.52500,-0.67500*
%
%ADD15ROUNDEDRECTD15*%
%ADD16R,0.87213X1.00429*%
G04:AMPARAMS|DCode=17|XSize=1.4mm|YSize=1.7mm|CornerRadius=0.175mm|HoleSize=0mm|Usage=FLASHONLY|Rotation=270.000|XOffset=0mm|YOffset=0mm|HoleType=Round|Shape=RoundedRectangle|*
%AMROUNDEDRECTD17*
21,1,1.40000,1.35000,0,0,270.0*
21,1,1.05000,1.70000,0,0,270.0*
1,1,0.35000,-0.67500,-0.52500*
1,1,0.35000,-0.67500,0.52500*
1,1,0.35000,0.67500,0.52500*
1,1,0.35000,0.67500,-0.52500*
%
%ADD17ROUNDEDRECTD17*%
%ADD18O,0.25000X0.80000*%
%TA.AperFunction,ConnectorPad*%
%ADD19R,0.65000X1.70000*%
%TA.AperFunction,SMDPad,CuDef*%
%ADD20R,0.35000X0.80000*%
%ADD21R,2.60000X2.70000*%
%ADD22R,0.85000X0.35000*%
%ADD23R,5.60000X5.60000*%
%TA.AperFunction,TestPad*%
G04:AMPARAMS|DCode=24|XSize=0.75mm|YSize=0.7mm|CornerRadius=0.035mm|HoleSize=0mm|Usage=FLASHONLY|Rotation=90.000|XOffset=0mm|YOffset=0mm|HoleType=Round|Shape=RoundedRectangle|*
%AMROUNDEDRECTD24*
21,1,0.75000,0.63000,0,0,90.0*
21,1,0.68000,0.70000,0,0,90.0*
1,1,0.07000,0.31500,0.34000*
1,1,0.07000,0.31500,-0.34000*
1,1,0.07000,-0.31500,-0.34000*
1,1,0.07000,-0.31500,0.34000*
%
%ADD24ROUNDEDRECTD24*%
%TA.AperFunction,SMDPad,CuDef*%
%ADD25R,1.30000X1.65000*%
G04:AMPARAMS|DCode=26|XSize=1.00429mm|YSize=3.18213mm|CornerRadius=0.43687mm|HoleSize=0mm|Usage=FLASHONLY|Rotation=270.000|XOffset=0mm|YOffset=0mm|HoleType=Round|Shape=RoundedRectangle|*
%AMROUNDEDRECTD26*
21,1,1.00429,2.30840,0,0,270.0*
21,1,0.13056,3.18213,0,0,270.0*
1,1,0.87373,-1.15420,-0.06528*
1,1,0.87373,-1.15420,0.06528*
1,1,0.87373,1.15420,0.06528*
1,1,0.87373,1.15420,-0.06528*
%
%ADD26ROUNDEDRECTD26*%
%TA.AperFunction,SMDPad,SMDef*%
%ADD27R,1.25000X1.25000*%
%TA.AperFunction,ConnectorPad*%
%ADD28R,1.55000X1.42500*%
%ADD29R,1.90000X1.00000*%
%ADD30R,1.90000X1.80000*%
%ADD31R,1.30000X1.65000*%
%ADD32R,1.00000X2.90000*%
%TA.AperFunction,Conductor*%
%ADD33C,0.30000*%
%ADD34C,0.20000*%
%ADD35C,0.60000*%
%ADD36C,1.00000*%
%ADD37C,0.40000*%
%ADD38C,0.26017*%
%TA.AperFunction,ViaPad*%
%ADD39C,1.15200*%
%TA.AperFunction,WasherPad*%
%ADD40C,1.15200*%
%ADD41C,2.40000*%
%TA.AperFunction,ComponentPad*%
%ADD42C,2.40000*%
%ADD43C,1.06700*%
%TA.AperFunction,ViaPad*%
%ADD44C,0.80000*%
%ADD45C,0.70000*%
%ADD46C,0.50000*%
%ADD47C,0.40000*%
%ADD48C,0.60000*%
%ADD49C,1.27000*%
G36*
X10882500Y7160162D02*
X10880000Y7160000D01*
X10880000Y7159999D01*
Y7037500D01*
X10862892Y7020392D01*
X10850207D01*
X10848237Y7020000D01*
X10846229D01*
X10845492Y7019853D01*
X10794508D01*
X10793771Y7020000D01*
X10791763D01*
X10789793Y7020392D01*
X10750000D01*
X10742196Y7018840D01*
X10735581Y7014419D01*
X10731160Y7007804D01*
X10731100Y7007500D01*
X10632500D01*
Y6835000D01*
X10627500Y6830000D01*
X10415000D01*
X10362500Y6777500D01*
Y6602500D01*
X10286000D01*
Y6602500D01*
X10235429D01*
X10217499Y6602500D01*
X10214999Y6600000D01*
X10217500Y6597500D01*
X10217500Y6582500D01*
Y6432500D01*
X10055000D01*
Y6565000D01*
X10043965Y6576035D01*
X10055785Y6592500D01*
X10192500D01*
Y6792500D01*
X10207500Y6807500D01*
X10357500Y6817500D01*
X10377500Y6922500D01*
X10507500Y7052500D01*
X10752500D01*
Y7102929D01*
X10757500Y7105000D01*
X10797500D01*
Y7190000D01*
X10818176Y7210676D01*
X10882500D01*
Y7160162D01*
D02*
G37*
G36*
X11130000Y7192500D02*
X11307999D01*
X11310000Y7173328D01*
Y7145000D01*
X11090000D01*
Y7035000D01*
X11070000Y7015000D01*
X10910000D01*
Y7205000D01*
X11130000D01*
Y7192500D01*
D02*
G37*
G36*
X10902196Y6996161D02*
X10910000Y6994608D01*
X11000000D01*
Y6800000D01*
X10750000D01*
Y7000000D01*
X10789793D01*
X10792500Y6999461D01*
X10847500D01*
X10850207Y7000000D01*
X10896450D01*
X10902196Y6996161D01*
D02*
G37*
G36*
X10700000Y6500000D02*
X11200000D01*
Y6300000D01*
X10950000D01*
Y6150000D01*
X10750000D01*
Y6350000D01*
X10550000D01*
Y6600000D01*
X10470000D01*
X10462643Y6601314D01*
X10450000Y6608284D01*
Y6800000D01*
X10700000D01*
Y6500000D01*
D02*
G37*
G36*
X10440000Y6580000D02*
X10460000Y6571716D01*
Y6500000D01*
Y6110000D01*
X10960000D01*
Y5930000D01*
X10570000D01*
Y5770000D01*
X10210000D01*
X10200000Y5780000D01*
Y6320000D01*
X10290000Y6410000D01*
Y6580000D01*
X10440000D01*
D02*
G37*
D10*
X10269000Y8317500D02*
D03*
X10523000D02*
D03*
X10396000D02*
D03*
X10523000Y8190500D02*
D03*
X10396000D02*
D03*
X10269000D02*
D03*
D11*
X10200000Y8700000D02*
D03*
X9950000Y6850000D02*
D03*
X9550000Y6700000D02*
D03*
X9750000D02*
D03*
X9250000Y7650000D02*
D03*
X8800000Y7000000D02*
D03*
X8500000D02*
D03*
X10600000Y8700000D02*
D03*
X9850000Y6700000D02*
D03*
X9150000Y7650000D02*
D03*
X9650000Y6700000D02*
D03*
X10950000Y7150000D02*
D03*
X10850000D02*
D03*
X9500000Y7900000D02*
D03*
X9600000D02*
D03*
X9650000Y7800000D02*
D03*
X9750000D02*
D03*
X10050000Y6850000D02*
D03*
X10043300Y6975500D02*
D03*
X9943300D02*
D03*
X10500000Y8700000D02*
D03*
X8800000Y7100000D02*
D03*
X8700000D02*
D03*
X10300000Y8700000D02*
D03*
X8700000Y7000000D02*
D03*
X8600000D02*
D03*
D12*
X11219000Y7430000D02*
D03*
Y7365000D02*
D03*
Y7300000D02*
D03*
Y7235000D02*
D03*
Y7170000D02*
D03*
D13*
X9950000Y7450000D02*
D03*
X9600000Y8150000D02*
D03*
X10820000Y6950000D02*
D03*
X10950000D02*
D03*
X11090000Y6330000D02*
D03*
X9400000Y7750000D02*
D03*
X8900000Y8350000D02*
D03*
Y8150000D02*
D03*
X9000000Y7350000D02*
D03*
Y7100000D02*
D03*
X8900000Y7350000D02*
D03*
Y8450000D02*
D03*
Y8250000D02*
D03*
X9950000Y7550000D02*
D03*
X11100000Y6000000D02*
D03*
X9000000Y7450000D02*
D03*
X8900000D02*
D03*
X9000000Y7000000D02*
D03*
X9600000Y8250000D02*
D03*
X11100000Y6100000D02*
D03*
X10820000Y7050000D02*
D03*
X10950000D02*
D03*
X11090000Y6230000D02*
D03*
X9400000Y7650000D02*
D03*
D14*
X9830000Y7400000D02*
D03*
X9150000Y7100000D02*
D03*
X9830000Y7450000D02*
D03*
X9150000D02*
D03*
Y7050000D02*
D03*
X9830000Y7350000D02*
D03*
Y7300000D02*
D03*
Y7250000D02*
D03*
Y7200000D02*
D03*
Y7150000D02*
D03*
Y7100000D02*
D03*
Y7050000D02*
D03*
Y7000000D02*
D03*
Y6950000D02*
D03*
Y6900000D02*
D03*
X9150000D02*
D03*
Y6950000D02*
D03*
Y7000000D02*
D03*
Y7150000D02*
D03*
Y7200000D02*
D03*
Y7250000D02*
D03*
Y7300000D02*
D03*
Y7350000D02*
D03*
Y7400000D02*
D03*
D15*
X10514300Y6700000D02*
D03*
X10285700D02*
D03*
D16*
X10600000Y6500000D02*
D03*
D17*
X10850000Y6264300D02*
D03*
Y6035700D02*
D03*
D18*
X9715000Y6835000D02*
D03*
X9265000Y7515000D02*
D03*
X9215000D02*
D03*
X9765000Y6835000D02*
D03*
X9665000D02*
D03*
X9315000Y7515000D02*
D03*
X9365000D02*
D03*
X9415000D02*
D03*
X9465000D02*
D03*
X9515000D02*
D03*
X9565000D02*
D03*
X9615000D02*
D03*
X9665000D02*
D03*
X9715000D02*
D03*
X9765000D02*
D03*
X9615000Y6835000D02*
D03*
X9565000D02*
D03*
X9515000D02*
D03*
X9465000D02*
D03*
X9415000D02*
D03*
X9365000D02*
D03*
X9315000D02*
D03*
X9265000D02*
D03*
X9215000D02*
D03*
D19*
X9512500Y5740000D02*
D03*
X8887500D02*
D03*
X9012500D02*
D03*
X9262500D02*
D03*
X9387500D02*
D03*
X9137500D02*
D03*
D20*
X9375000Y8500000D02*
D03*
Y8100000D02*
D03*
X9125000D02*
D03*
X9175000D02*
D03*
X9225000D02*
D03*
X9275000D02*
D03*
X9325000D02*
D03*
X9125000Y8500000D02*
D03*
X9175000D02*
D03*
X9225000D02*
D03*
X9275000D02*
D03*
X9325000D02*
D03*
D21*
X9250000Y8300000D02*
D03*
D22*
X9052500Y8325000D02*
D03*
Y8225000D02*
D03*
Y8375000D02*
D03*
Y8275000D02*
D03*
X9447500Y8175000D02*
D03*
Y8225000D02*
D03*
Y8275000D02*
D03*
Y8325000D02*
D03*
Y8375000D02*
D03*
Y8425000D02*
D03*
X9052500Y8175000D02*
D03*
Y8425000D02*
D03*
D23*
X9490000Y7175000D02*
D03*
D24*
X8700000Y6867500D02*
D03*
X8600000Y6732500D02*
D03*
X8700000D02*
D03*
X8600000Y6867500D02*
D03*
D25*
X10371000Y6500000D02*
D03*
D26*
Y5841000D02*
D03*
D27*
X10142000Y6500000D02*
D03*
D28*
X11227500Y7548750D02*
D03*
Y7051250D02*
D03*
D29*
X11485000Y7455000D02*
D03*
D30*
Y7185000D02*
D03*
D31*
Y7637500D02*
D03*
Y6962500D02*
D03*
D32*
X8702500Y5460000D02*
D03*
X9697500D02*
D03*
D33*
X10253970Y8317500D02*
X10269000D01*
X10190470Y8254000D02*
X10253970Y8317500D01*
X10179646Y8254000D02*
X10190470D01*
X10100000Y8700000D02*
X10200000D01*
X10039176Y7500000D02*
X10050000D01*
X10004176Y7465000D02*
X10039176Y7500000D01*
X9950000Y7450000D02*
X9965000Y7465000D01*
X10004176D01*
X9945000Y7450000D02*
X9950000D01*
X9930000Y7435000D02*
X9945000Y7450000D01*
X9900000Y7400000D02*
X9930000Y7430000D01*
Y7435000D01*
X9595000Y8150000D02*
X9600000D01*
X9830000Y7400000D02*
X9900000D01*
X9515307Y8070307D02*
X9595000Y8150000D01*
X9507654Y8016728D02*
X9515307Y8024381D01*
Y8070307D01*
X10800000Y6850000D02*
Y6860824D01*
X10514300Y6700000D02*
X10564300Y6750000D01*
X11095000Y6445000D02*
X11100000Y6450000D01*
X11090000Y6330000D02*
X11095000Y6335000D01*
X10850000Y6264300D02*
X10900000Y6314301D01*
X10600000Y6400000D02*
X10600000Y6400000D01*
X9750000Y6700000D02*
Y6750000D01*
X9715000Y6835000D02*
X9715000Y6835000D01*
Y6785000D02*
X9750000Y6750000D01*
X9715000Y6785000D02*
Y6835000D01*
X9750000Y6600000D02*
Y6700000D01*
X9506250Y5733750D02*
X9512500Y5740000D01*
X9506250Y5556250D02*
Y5733750D01*
X9500000Y5550000D02*
X9506250Y5556250D01*
X9400000Y7750000D02*
Y7850000D01*
X9215000Y7690000D02*
Y7695104D01*
Y7690000D02*
X9250000Y7655000D01*
X9160104Y7750000D02*
X9215000Y7695104D01*
X9250000Y7650000D02*
Y7655000D01*
X8800000Y8350000D02*
X8900000D01*
X9150000Y7750000D02*
X9160104D01*
X8900000Y8150000D02*
X8900000Y8150000D01*
X8800000Y8150000D02*
X8900000D01*
X9265000Y7515000D02*
Y7559675D01*
X9250000Y7574675D02*
Y7650000D01*
Y7574675D02*
X9265000Y7559675D01*
X8900000Y7350000D02*
X9000000D01*
X8800000D02*
X8900000D01*
X9357500Y7945000D02*
X9422782D01*
X9427781Y7950000D01*
X9455000D01*
X9352500D02*
X9357500Y7945000D01*
X9455000Y7950000D02*
X9500000Y7905000D01*
X9250000Y7950000D02*
X9352500D01*
X8900000Y7450000D02*
X8905000D01*
X9002500Y7547500D01*
X9052500D01*
X9150000Y7645000D01*
Y7650000D01*
X9650000Y7800000D02*
X9665000Y7815000D01*
Y7884588D01*
X9675000Y7894588D01*
Y7900000D01*
X10832426Y5400000D02*
X10850000Y5417574D01*
X10850000Y6035700D02*
X10850000Y6035700D01*
X10850000Y6035700D02*
X10885700Y6000000D01*
X11100000D01*
X9935000Y7535000D02*
X9950000Y7550000D01*
X9880000Y7490104D02*
X9924896Y7535000D01*
X9935000D01*
X9880000Y7477500D02*
Y7490104D01*
X9852500Y7450000D02*
X9880000Y7477500D01*
X9830000Y7450000D02*
X9852500D01*
X9215000Y7515000D02*
Y7537501D01*
X9765000Y6812500D02*
Y6835000D01*
X9785026Y6787600D02*
X9822626Y6750000D01*
X9832426D01*
X9765000Y6812500D02*
X9785026Y6792474D01*
Y6787600D02*
Y6792474D01*
X9835000Y6715000D02*
X9850000Y6700000D01*
X9832426Y6750000D02*
X9835000Y6747426D01*
Y6715000D02*
Y6747426D01*
X9165000Y7587501D02*
Y7635000D01*
Y7587501D02*
X9215000Y7537501D01*
X9150000Y7650000D02*
X9165000Y7635000D01*
X9060104Y7050000D02*
X9150000D01*
X9000000Y7450000D02*
X9150000D01*
X9045104Y7035000D02*
X9060104Y7050000D01*
X9150000D02*
X9150000Y7050000D01*
X9040000Y7035000D02*
X9045104D01*
X9005000Y7000000D02*
X9040000Y7035000D01*
X8900000Y7450000D02*
X9000000D01*
X9662500Y6832500D02*
X9665000Y6835000D01*
X9662500Y6712500D02*
Y6832500D01*
X9650000Y6700000D02*
X9662500Y6712500D01*
X8665000Y6954896D02*
Y6960000D01*
X8620000Y6887500D02*
Y6909896D01*
X8665000Y6954896D01*
X8600000Y6867500D02*
X8620000Y6887500D01*
X8665000Y6960000D02*
X8700000Y6995000D01*
Y7000000D01*
X8700000Y7000000D01*
Y7100000D01*
D34*
X11216500Y7427500D02*
X11219000Y7430000D01*
X11027500Y7427500D02*
X11216500D01*
X11025000Y7425000D02*
X11027500Y7427500D01*
X9950000Y6850000D02*
X9950000Y6850000D01*
X9933552Y6762983D02*
X9937017D01*
X9950000Y6750000D02*
Y6850000D01*
X9937017Y6762983D02*
X9950000Y6750000D01*
X9550000Y6600000D02*
Y6700000D01*
X9375000Y8522500D02*
X9450000Y8597500D01*
X9375000Y8500000D02*
Y8522500D01*
X9382500Y8056030D02*
Y8092500D01*
Y8056030D02*
X9396173Y8042357D01*
X9375000Y8100000D02*
X9382500Y8092500D01*
X9396173Y8003827D02*
X9400000Y8000000D01*
X9396173Y8003827D02*
Y8042357D01*
X8930000Y8325000D02*
X9052500D01*
X8900000Y8350000D02*
X8905000D01*
X8930000Y8325000D01*
X9050000Y8222500D02*
X9052500Y8225000D01*
X8994068Y8222500D02*
X9050000D01*
X8920000Y8170000D02*
X8941568D01*
X8994068Y8222500D01*
X8900000Y8150000D02*
X8920000Y8170000D01*
X9000000Y7100000D02*
X9150000D01*
X8995000D02*
X9000000D01*
X8900000Y7005000D02*
X8995000Y7100000D01*
X8900000Y7000000D02*
Y7005000D01*
X8800000Y6900000D02*
Y7000000D01*
X8500000D02*
Y7100000D01*
X8700000Y6865000D02*
X8755433Y6809567D01*
X8700000Y6865000D02*
Y6867500D01*
X8790433Y6809567D02*
X8800000Y6800000D01*
X8755433Y6809567D02*
X8790433D01*
X8535000Y6732500D02*
X8600000D01*
X8500000Y6700000D02*
X8502500D01*
X8535000Y6732500D01*
X9385000Y5742500D02*
X9387500Y5740000D01*
X9385000Y5742500D02*
Y5882500D01*
X9260000Y5742500D02*
X9262500Y5740000D01*
X9260000Y5742500D02*
Y5830000D01*
X9385000Y5882500D02*
X9415000Y5912500D01*
X9250000Y5840000D02*
X9260000Y5830000D01*
X9135000Y5742500D02*
X9137500Y5740000D01*
X9135000Y5742500D02*
Y5830000D01*
X9010000Y5742500D02*
X9012500Y5740000D01*
X9010000Y5742500D02*
Y5830000D01*
X9050000Y8377500D02*
X9052500Y8375000D01*
X8997574Y8377500D02*
X9050000D01*
X8980000Y8395074D02*
X8997574Y8377500D01*
X8980000Y8395074D02*
Y8435000D01*
X8965000Y8450000D02*
X8980000Y8435000D01*
X8900000Y8450000D02*
X8965000D01*
X9350000Y7952500D02*
Y7983076D01*
X9125000Y8011716D02*
X9139320Y7997396D01*
X9335680D01*
X9350000Y7983076D01*
Y7952500D02*
X9352500Y7950000D01*
X9125000Y8011716D02*
Y8100000D01*
X10362346Y8767346D02*
X10392346D01*
X10400000Y8775000D01*
X10300000Y8705000D02*
X10362346Y8767346D01*
X10300000Y8700000D02*
Y8705000D01*
X10115000Y7515000D02*
X10410000Y7810000D01*
X9738033Y7585000D02*
X10182500Y8029468D01*
X9697396Y7585000D02*
X9738033D01*
X9800000Y8100000D02*
Y8400000D01*
X10523000Y8317500D02*
X10540941D01*
X10581441Y8358000D01*
X10712132D01*
X10800000Y8445868D01*
Y8570132D01*
X10670132Y8700000D02*
X10800000Y8570132D01*
X10600000Y8700000D02*
X10670132D01*
X10500000Y8421500D02*
Y8700000D01*
X9590000Y7890000D02*
X9605052Y7905052D01*
Y7984844D02*
X9610104Y7989896D01*
X9605052Y7905052D02*
Y7984844D01*
X8951516Y8051516D02*
X9310000Y7693033D01*
Y7623432D02*
Y7693033D01*
X8951516Y8051516D02*
Y8098484D01*
X9010000Y5830000D02*
X9050000Y5870000D01*
Y6100000D01*
X9100000Y6150000D01*
X9415000Y5912500D02*
Y6835000D01*
X10100000Y7361716D02*
Y7458076D01*
X10115000Y7473076D01*
Y7515000D01*
X8898986Y7111838D02*
X8924853Y7137705D01*
Y7145858D01*
X8898986Y7101014D02*
Y7111838D01*
X9675000Y8375000D02*
X9700000Y8350000D01*
Y8050000D02*
Y8350000D01*
Y8050000D02*
X9750000Y8000000D01*
X11090000Y6230000D02*
X11095000Y6225000D01*
Y6105000D02*
Y6225000D01*
Y6105000D02*
X11100000Y6100000D01*
X10300000Y8700000D02*
X10500000D01*
X10396000Y8317500D02*
X10500000Y8421500D01*
X9027500Y8175000D02*
X9052500D01*
X8985758Y8133258D02*
X9027500Y8175000D01*
X8985758Y8132725D02*
Y8133258D01*
X8951516Y8098484D02*
X8985758Y8132725D01*
X9750000Y7800000D02*
Y8000000D01*
Y7705000D02*
Y7800000D01*
X9590000Y7736967D02*
Y7890000D01*
X9465000Y7611967D02*
X9590000Y7736967D01*
X9465000Y7515000D02*
Y7611967D01*
X9669401Y7624401D02*
X9750000Y7705000D01*
X9775000Y8425000D02*
X9800000Y8400000D01*
X9447500Y8425000D02*
X9775000D01*
X9447500Y8375000D02*
X9675000D01*
X9050000Y8272500D02*
X9052500Y8275000D01*
X8900000Y8250000D02*
X8965000D01*
X8987500Y8272500D01*
X9050000D01*
X9447500Y8225000D02*
X9450000Y8227500D01*
X9512500D01*
X9535000Y8250000D01*
X9600000D01*
X10046650Y6853350D02*
X10050000Y6850000D01*
X10046650Y6853350D02*
Y6972150D01*
X10043300Y6975500D02*
X10046650Y6972150D01*
X9943300Y6970500D02*
Y6975500D01*
X9922800Y6950000D02*
X9943300Y6970500D01*
X9830000Y6950000D02*
X9922800D01*
X9310000Y7623432D02*
X9364044Y7569388D01*
Y7515957D02*
Y7569388D01*
Y7515957D02*
X9365000Y7515000D01*
X9515000D02*
Y7543853D01*
X9522500Y7551353D01*
Y7560104D01*
X9586797Y7624401D01*
X9669401D01*
X9414043Y7515957D02*
X9415000Y7515000D01*
X9414043Y7515957D02*
Y7575957D01*
X9400000Y7590000D02*
X9414043Y7575957D01*
X9400000Y7590000D02*
Y7650000D01*
X10269000Y8174350D02*
Y8190500D01*
X10225350Y8130701D02*
X10269000Y8174350D01*
X10225350Y8117875D02*
Y8130701D01*
X10182500Y8075025D02*
X10225350Y8117875D01*
X10182500Y8029468D02*
Y8075025D01*
X9672500Y7560104D02*
X9697396Y7585000D01*
X9672500Y7551353D02*
Y7560104D01*
X9665000Y7543853D02*
X9672500Y7551353D01*
X9665000Y7515000D02*
Y7543853D01*
X10396000Y8190500D02*
X10482500Y8104000D01*
Y7937868D02*
Y8104000D01*
X10394632Y7850000D02*
X10482500Y7937868D01*
X10146967Y7850000D02*
X10394632D01*
X9811967Y7515000D02*
X10146967Y7850000D01*
X9765000Y7515000D02*
X9811967D01*
X10410000Y7810000D02*
X10672132D01*
X10800000Y7937868D01*
X10636126Y8150000D02*
X10712132D01*
X10800000Y7937868D02*
Y8062132D01*
X10523000Y8190500D02*
X10523525Y8189975D01*
X10712132Y8150000D02*
X10800000Y8062132D01*
X10523525Y8189975D02*
X10596150D01*
X10636126Y8150000D01*
X10088284Y7350000D02*
X10100000Y7361716D01*
X9830000Y7350000D02*
X10088284D01*
X9250000Y5840000D02*
Y6200000D01*
X9300000Y6250000D01*
Y6400000D01*
X9350000Y6450000D01*
Y6550000D01*
X9365000Y6565000D01*
Y6835000D01*
X9300000Y6650000D02*
X9315000Y6665000D01*
X9300000Y6600000D02*
Y6650000D01*
X9315000Y6665000D02*
Y6835000D01*
X9135000Y5830000D02*
X9150000Y5845000D01*
Y6050000D01*
X9200000Y6100000D01*
Y6500000D01*
X9300000Y6600000D01*
X9200000Y6700000D02*
X9265000Y6765000D01*
Y6835000D01*
X9100000Y6150000D02*
Y6350000D01*
X9150000Y6400000D01*
Y6550000D01*
X9200000Y6600000D01*
Y6700000D01*
X9265000Y6835000D02*
X9265000Y6835000D01*
X8938995Y7160000D02*
X9043033D01*
X8924853Y7145858D02*
X8938995Y7160000D01*
X8700000Y6732500D02*
Y6788284D01*
X8688284Y6800000D02*
X8700000Y6788284D01*
X8511716Y6800000D02*
X8688284D01*
X8500000Y6811716D02*
X8511716Y6800000D01*
X8500000Y6811716D02*
Y6895000D01*
X8600000Y6995000D01*
Y7000000D01*
X9043033Y7160000D02*
X9053033Y7150000D01*
X9150000D01*
X8800000Y7100000D02*
Y7188284D01*
X8811716Y7200000D01*
X9150000D01*
X8600000Y7000000D02*
Y7238284D01*
X8611716Y7250000D01*
X9150000D01*
D35*
X8250000Y7900000D02*
Y8292500D01*
X8407500Y8450000D02*
X8592574D01*
X8250000Y8292500D02*
X8407500Y8450000D01*
X9900000Y8086863D02*
Y8829705D01*
X8750000Y8607427D02*
Y8829705D01*
X10600000Y8700000D02*
Y8829705D01*
X9950000Y7550000D02*
X9955000D01*
X10053087Y7648087D01*
X10098087D01*
X10100000Y7650000D01*
X10130000Y6830000D02*
X10375000Y7075000D01*
X10130000Y6758571D02*
Y6830000D01*
X9885714Y6514286D02*
X10130000Y6758571D01*
X9885714Y6514286D02*
X9950000Y6450000D01*
X9850000Y7950000D02*
X9851913Y7951913D01*
Y8038777D01*
X9900000Y8086863D01*
X8592574Y8450000D02*
X8750000Y8607427D01*
X8592574Y8450000D02*
X8900000D01*
X8250000Y7900000D02*
X8950000D01*
X8250000Y7700000D02*
X8300000Y7650000D01*
X8250000Y7700000D02*
Y7900000D01*
X9000000Y6575000D02*
Y7000000D01*
X8675000Y6250000D02*
X9000000Y6575000D01*
X8250000Y7450000D02*
X8900000D01*
X8250000D02*
Y7700000D01*
Y6285147D02*
Y7450000D01*
Y6285147D02*
X8285147Y6250000D01*
X8675000D01*
X8887500Y6037500D01*
Y5740000D02*
Y6037500D01*
X9850000Y6550000D02*
Y6700000D01*
Y6550000D02*
X9885714Y6514286D01*
X8887500Y5435147D02*
Y5740000D01*
Y5435147D02*
X8922647Y5400000D01*
X9550000D01*
D36*
X10850000Y5417574D02*
Y6035700D01*
X9950000Y5400000D02*
Y6450000D01*
Y5400000D02*
X10832426D01*
D37*
X9900000Y8829705D02*
X9915294Y8845000D01*
X10584706D01*
X10600000Y8829705D01*
X8750000D02*
X9900000D01*
D38*
X9858315Y7251832D02*
X10496809D01*
X9858314Y7298169D02*
X10516003D01*
X10523503Y7290668D01*
X11209668D01*
X10496809Y7251832D02*
X10504309Y7244331D01*
X11209668D01*
X11209668Y7290668D02*
X11219000Y7300000D01*
X9856483D02*
X9858314Y7298169D01*
X9830000Y7300000D02*
X9856483D01*
X11209668Y7244331D02*
X11219000Y7235000D01*
X9856483Y7250000D02*
X9858315Y7251832D01*
X9830000Y7250000D02*
X9856483D01*
D39*
X8252500Y8497500D02*
D03*
D40*
X11335000Y5897500D02*
D03*
D41*
X8347500Y8722500D02*
D03*
X11250000Y5650000D02*
D03*
Y8650000D02*
D03*
X8400000Y5700000D02*
D03*
D42*
X10332500Y8508000D02*
D03*
X10650000D02*
D03*
Y8000000D02*
D03*
X10332500D02*
D03*
D43*
X10650000Y8254000D02*
D03*
X10142000Y8152400D02*
D03*
Y8355600D02*
D03*
D44*
X11170001Y8387501D02*
D03*
X11270001Y8187501D02*
D03*
X11170001Y7987501D02*
D03*
X11270001Y7787501D02*
D03*
X11170001Y6787501D02*
D03*
X11270001Y6587500D02*
D03*
Y6187500D02*
D03*
X10970001Y8387501D02*
D03*
X11070001Y8187501D02*
D03*
X10970001Y7987501D02*
D03*
X11070001Y7787501D02*
D03*
X10970001Y7587501D02*
D03*
X11070001Y6587500D02*
D03*
Y5787500D02*
D03*
X10970001Y5587500D02*
D03*
X10870001Y8587501D02*
D03*
Y8187501D02*
D03*
Y7787501D02*
D03*
X10770001Y7587501D02*
D03*
X10870001Y7387501D02*
D03*
Y6587500D02*
D03*
X10570001Y7587501D02*
D03*
X10670001Y7387501D02*
D03*
Y5787500D02*
D03*
X10570001Y5587500D02*
D03*
X10370001Y7587501D02*
D03*
X10470001Y7387501D02*
D03*
X10370001Y5587500D02*
D03*
X10170001D02*
D03*
X10070001Y6187500D02*
D03*
Y5787500D02*
D03*
X9770001Y6387500D02*
D03*
Y5987500D02*
D03*
X9670000Y8587501D02*
D03*
X9570000Y6387500D02*
D03*
X9670000Y6187500D02*
D03*
X9570000Y5987500D02*
D03*
X9670000Y5787500D02*
D03*
X9470000Y6187500D02*
D03*
X9170000Y5587500D02*
D03*
X9070000Y8587501D02*
D03*
Y6587500D02*
D03*
X8970000Y6387500D02*
D03*
X8870000Y8587501D02*
D03*
X8770000Y7987501D02*
D03*
Y7587501D02*
D03*
X8870000Y6587500D02*
D03*
Y6187500D02*
D03*
X8770000Y5987500D02*
D03*
X8670000Y8187501D02*
D03*
X8570000Y7987501D02*
D03*
X8670000Y7787501D02*
D03*
X8570000Y7587501D02*
D03*
X8670000Y6587500D02*
D03*
X8570000Y6387500D02*
D03*
Y5987500D02*
D03*
X8670000Y5787500D02*
D03*
X8570000Y5587500D02*
D03*
X8470000Y8187501D02*
D03*
X8370000Y7987501D02*
D03*
X8470000Y7787501D02*
D03*
X8370000Y7587501D02*
D03*
Y7187501D02*
D03*
Y6787501D02*
D03*
Y6387500D02*
D03*
Y5987500D02*
D03*
X8170000D02*
D03*
Y5587500D02*
D03*
D45*
X10179646Y8254000D02*
D03*
X10100000Y8700000D02*
D03*
X10050000Y7500000D02*
D03*
X11025000Y7425000D02*
D03*
X9507654Y8016728D02*
D03*
X10800000Y6850000D02*
D03*
X10950000D02*
D03*
X10650000Y6650000D02*
D03*
X9950000Y6750000D02*
D03*
X10650000D02*
D03*
X11100000Y6450000D02*
D03*
X10900000Y6400000D02*
D03*
X10600000D02*
D03*
X10800000D02*
D03*
X9750000Y6600000D02*
D03*
X9550000D02*
D03*
X9500000Y5550000D02*
D03*
X9450000Y8597500D02*
D03*
X9400000Y7850000D02*
D03*
X8800000Y8350000D02*
D03*
X9150000Y7750000D02*
D03*
X8800000Y8150000D02*
D03*
X8900000Y7000000D02*
D03*
X8800000Y7350000D02*
D03*
X8500000Y7100000D02*
D03*
X8800000Y6900000D02*
D03*
Y6800000D02*
D03*
X8500000Y6700000D02*
D03*
X10100000Y7650000D02*
D03*
X9850000Y7950000D02*
D03*
X9250000D02*
D03*
X8950000Y7900000D02*
D03*
X9550000Y5400000D02*
D03*
X9950000D02*
D03*
D46*
X9710000Y7395000D02*
D03*
X9600000D02*
D03*
X9490000D02*
D03*
X9710000Y7285000D02*
D03*
Y7175000D02*
D03*
X9600000D02*
D03*
X9710000Y7065000D02*
D03*
Y6955000D02*
D03*
X9600000Y7065000D02*
D03*
Y7285000D02*
D03*
X9490000Y7175000D02*
D03*
Y7285000D02*
D03*
Y6955000D02*
D03*
Y7065000D02*
D03*
X9600000Y6955000D02*
D03*
X9305000Y8355000D02*
D03*
Y8245000D02*
D03*
X9195000Y8355000D02*
D03*
Y8245000D02*
D03*
X9270000Y7395000D02*
D03*
X9380000D02*
D03*
Y7285000D02*
D03*
X9270000D02*
D03*
X9380000Y7175000D02*
D03*
X9270000Y7065000D02*
D03*
Y7175000D02*
D03*
X9380000Y7065000D02*
D03*
Y6955000D02*
D03*
X9270000D02*
D03*
X9675000Y7900000D02*
D03*
D47*
X9400000Y8000000D02*
D03*
D48*
X10400000Y8775000D02*
D03*
X9610104Y7989896D02*
D03*
X8898986Y7101014D02*
D03*
X9800000Y8100000D02*
D03*
D49*
X10375000Y7075000D02*
D03*
%TF.MD5,4bdce2783074d9dfd13150a9367f852c*%
M02*
